# xmcd
#
# Track frame offsets:
# 150
# 11295
# 21214
# 30304
# 40964
# 57274
# 70818
# 80356
# 93645
# 104583
# 117797
# 128247
# 139155
# 154474
# 165630
# 177584
# 189868
# 202928
# 213284
# 225022
# 238199
# 250916
# 262970
#
# Disc length: 3621 seconds
#
# Revision: 0
# Processed by: cddbd v1.4PL0 Copyright (c) Steve Scherf et al.
# Submitted via: Axialis_AX_CDPlayer 2.6
#
DISCID=2f0e2317
DTITLE=Faron Young - Essential Faron Young
DYEAR=1900
DGENRE=
TTITLE0=Cryin' Time
TTITLE1=Rebel Johnny Yuma
TTITLE2=Heartache For a Keepsake
TTITLE3=Pick Me Up On Your Way Down
TTITLE4=After The Lovin'
TTITLE5=Almost Persuaded
TTITLE6=Candy Kisses
TTITLE7=Fraulein
TTITLE8=Wine Me Up
TTITLE9=Save The Last Dance For Me
TTITLE10=Wings of a Dove
TTITLE11=Funny, How Time Slips Away
TTITLE12=Hello Walls
TTITLE13=The Yellow Bandana
TTITLE14=I Don't Hurt Anymore
TTITLE15=I Fall To Pieces
TTITLE16=It's Four In The Morninhg
TTITLE17=Live Fast, Love Hard, Die Young
TTITLE18=She Went a Little Bit Farther
TTITLE19=Swinging Doors
TTITLE20=There Goes My Everything
TTITLE21=What's He Doing in My World ?
TTITLE22=Rawhide
EXTD=
EXTT0=
EXTT1=
EXTT2=
EXTT3=
EXTT4=
EXTT5=
EXTT6=
EXTT7=
EXTT8=
EXTT9=
EXTT10=
EXTT11=
EXTT12=
EXTT13=
EXTT14=
EXTT15=
EXTT16=
EXTT17=
EXTT18=
EXTT19=
EXTT20=
EXTT21=
EXTT22=
PLAYORDER=
